<?xml version="1.0" standalone="no"?>
<!DOCTYPE svg PUBLIC "-//W3C//DTD SVG 20010904//EN"
 "http://www.w3.org/TR/2001/REC-SVG-20010904/DTD/svg10.dtd">
<svg version="1.0" xmlns="http://www.w3.org/2000/svg"
 width="700.000000pt" height="700.000000pt" viewBox="0 0 700.000000 700.000000"
 preserveAspectRatio="xMidYMid meet">
<metadata>
Created by potrace 1.14, written by Peter Selinger 2001-2017
</metadata>
<g transform="translate(0.000000,700.000000) scale(0.100000,-0.100000)"
fill="#000000" stroke="none">
<path d="M3200 6943 c-828 -79 -1561 -423 -2141 -1002 -547 -548 -875 -1211
-986 -1996 -14 -104 -18 -193 -18 -445 0 -343 9 -444 65 -712 310 -1477 1543
-2578 3054 -2727 138 -14 512 -14 647 -1 1661 164 2955 1456 3118 3114 14 141
14 511 0 652 -148 1502 -1239 2732 -2704 3049 -255 55 -369 67 -690 70 -165 1
-320 1 -345 -2z m481 -1594 c223 -22 430 -80 624 -174 354 -171 652 -457 838
-805 317 -595 280 -1338 -96 -1900 -203 -304 -508 -554 -838 -688 -514 -209
-1104 -181 -1579 75 -266 143 -511 365 -677 613 -363 543 -412 1246 -128 1836
93 193 199 339 364 504 205 205 389 326 641 423 271 105 567 145 851 116z"/>
</g>
</svg>
