<?xml version="1.0" standalone="no"?>
<!DOCTYPE svg PUBLIC "-//W3C//DTD SVG 20010904//EN"
 "http://www.w3.org/TR/2001/REC-SVG-20010904/DTD/svg10.dtd">
<svg version="1.0" xmlns="http://www.w3.org/2000/svg"
 width="700.000000pt" height="700.000000pt" viewBox="0 0 700.000000 700.000000"
 preserveAspectRatio="xMidYMid meet">
<metadata>
Created by potrace 1.14, written by Peter Selinger 2001-2017
</metadata>
<g transform="translate(0.000000,700.000000) scale(0.100000,-0.100000)"
fill="#000000" stroke="none">
<path d="M3367 6964 c-1 -1 -50 -5 -108 -8 -59 -4 -115 -8 -125 -10 -11 -2
-46 -7 -79 -10 -33 -4 -73 -9 -90 -12 -16 -3 -43 -7 -60 -10 -16 -3 -37 -7
-45 -9 -8 -2 -31 -7 -50 -10 -19 -3 -55 -11 -80 -16 -25 -6 -53 -12 -62 -14
-36 -8 -176 -48 -262 -77 -235 -77 -518 -210 -731 -343 -92 -57 -368 -254
-385 -274 -3 -3 -40 -37 -83 -75 -126 -111 -206 -192 -342 -347 -223 -251
-450 -627 -583 -964 -69 -175 -152 -444 -168 -545 -2 -14 -7 -36 -10 -50 -10
-42 -14 -63 -20 -110 -3 -25 -8 -47 -9 -51 -2 -3 -7 -39 -11 -80 -3 -40 -8
-77 -10 -80 -6 -10 -18 -254 -18 -374 0 -119 11 -331 19 -370 3 -11 7 -42 10
-70 13 -128 40 -268 84 -435 176 -682 581 -1321 1121 -1772 141 -117 376 -282
505 -354 561 -311 1115 -458 1725 -457 263 0 487 23 740 78 145 31 415 111
505 150 17 7 75 32 130 55 384 161 765 421 1083 740 379 380 669 854 835 1365
48 147 97 335 112 430 1 11 8 52 15 90 6 39 13 92 16 118 2 27 6 52 8 56 7 11
19 237 19 376 1 221 -23 477 -60 655 -8 41 -17 88 -20 104 -19 116 -121 429
-200 616 -77 180 -242 479 -325 590 -11 14 -49 66 -85 115 -484 663 -1259
1155 -2078 1320 -114 23 -141 27 -245 40 -25 3 -61 8 -80 10 -88 12 -493 27
-503 19z"/>
</g>
</svg>
